# xmcd
# 
# Track frame offsets:
#     150
#     21710
#     39197
#     58655
#     70200
#     103525
#     184692
# 
# Disc length: 2838
# 
# Revision: 9
# Processed by: cddbd v1.5.2PL0 Copyright (c) Steve Scherf et al.
# Submitted via: fre:ac v1.0.17
# 
DISCID=5b0b1407
DTITLE=Grateful Dead [Live] - Bear's Choice (1970)
DYEAR=1970
DGENRE=Rock
TTITLE0=Katie Mae
TTITLE1=Dark Hollow
TTITLE2=I've Been All Around this World
TTITLE3=Wake up Little Susie
TTITLE4=Black Peter
TTITLE5=Smokestack Lightnin'
TTITLE6=Hard to Handle
EXTD=
EXTT0=
EXTT1=
EXTT2=
EXTT3=
EXTT4=
EXTT5=
EXTT6=
PLAYORDER=
